<?xml version="1.0" encoding="utf-8"?>
<!-- Generator: Adobe Illustrator 24.1.2, SVG Export Plug-In . SVG Version: 6.00 Build 0)  -->
<svg version="1.1"
	 id="svg5294" inkscape:version="0.92.4 (5da689c313, 2019-01-14)" sodipodi:docname="wasp-bee-publicdomainvectors.org.svg" xmlns:cc="http://creativecommons.org/ns#" xmlns:dc="http://purl.org/dc/elements/1.1/" xmlns:inkscape="http://www.inkscape.org/namespaces/inkscape" xmlns:rdf="http://www.w3.org/1999/02/22-rdf-syntax-ns#" xmlns:sodipodi="http://sodipodi.sourceforge.net/DTD/sodipodi-0.dtd" xmlns:svg="http://www.w3.org/2000/svg"
	 xmlns="http://www.w3.org/2000/svg" xmlns:xlink="http://www.w3.org/1999/xlink" x="0px" y="0px" viewBox="0 0 200 187.1"
	 style="enable-background:new 0 0 200 187.1;" xml:space="preserve">
<style type="text/css">
	.st0{fill:none;}
	.st1{fill:#F9ED26;}
	.st2{fill:#940000;}
	.st3{fill:none;stroke:#000000;stroke-miterlimit:10;}
</style>
<sodipodi:namedview  bordercolor="#666666" borderopacity="1" gridtolerance="10" guidetolerance="10" id="namedview5296" inkscape:current-layer="g5302" inkscape:cx="437.28814" inkscape:cy="371.18644" inkscape:pageopacity="0" inkscape:pageshadow="2" inkscape:window-height="1018" inkscape:window-maximized="1" inkscape:window-width="1920" inkscape:window-x="-8" inkscape:window-y="-8" inkscape:zoom="0.82658416" objecttolerance="10" pagecolor="#ffffff" showgrid="false">
	</sodipodi:namedview>
<g>
	<path d="M18.6,152.2h7.6v10.9c0,0.9,0.1,1.4,0.3,1.8c0.2,0.3,0.5,0.5,1,0.5c0.9,0,1.3-0.8,1.3-2.3v-10.9h7.6v10.9
		c0,0.9,0.1,1.4,0.3,1.8s0.5,0.5,1,0.5c0.8,0,1.3-0.8,1.3-2.3v-10.9h7.6v12.4c0,2.3-0.8,4.2-2.3,5.8c-1.5,1.6-3.4,2.4-5.6,2.4
		c-2.2,0-4.3-0.9-6-2.8c-2,1.9-4,2.8-6,2.8c-2.5,0-4.6-0.9-6.1-2.8c-1.2-1.4-1.8-3.5-1.8-6.3V152.2z"/>
	<path d="M62,164.5v7.8c-0.6,0.1-1.2,0.2-1.7,0.2c-3,0-5.6-1-7.6-3c-2-2-3-4.5-3-7.5c0-2.9,1-5.4,3.1-7.5s4.5-3.1,7.5-3.1
		c3.3,0,5.8,1,7.7,2.9c1.9,1.9,2.8,4.5,2.8,7.8v9.9h-7.6v-9.4c0-1.1-0.3-1.9-0.8-2.6c-0.5-0.6-1.2-1-2.1-1c-0.8,0-1.5,0.3-2.1,0.9
		c-0.6,0.6-0.9,1.3-0.9,2.1c0,0.8,0.3,1.5,0.8,2.1c0.5,0.5,1.2,0.8,2,0.8C60.8,165,61.4,164.9,62,164.5z"/>
	<path d="M87.8,152.2v8c-1.1,0-1.8,0.2-2.2,0.6c-0.4,0.4-0.7,1.2-0.8,2.4c-0.4,3.9-1.9,6.7-4.5,8.3c-1.4,0.8-3.4,1.3-6,1.3h-1.1v-8
		h0.3c1.2,0,2.1-0.3,2.6-0.8c0.5-0.5,0.8-1.4,0.9-2.7c0.1-2.1,0.3-3.5,0.6-4.4c0.3-0.8,0.8-1.7,1.7-2.5c1.5-1.4,3.5-2.2,6.2-2.2
		H87.8z"/>
	<path d="M97.4,179.6h-7.6v-16.9c0-3.1,0.8-5.6,2.4-7.6c0.9-1.1,2.1-2,3.6-2.7s2.9-1,4.4-1c3,0,5.6,1,7.6,3c2.1,2,3.1,4.5,3.1,7.5
		c0,2.9-1,5.3-3.1,7.4c-2.1,2.1-4.5,3.1-7.3,3.1c-0.5,0-1.1,0-2-0.1V164c0.6,0.5,1.2,0.8,1.9,0.8c0.8,0,1.5-0.3,2-0.9
		c0.6-0.6,0.8-1.3,0.8-2.1c0-0.8-0.3-1.5-0.9-2c-0.6-0.6-1.3-0.8-2.1-0.8c-1.9,0-2.9,1.3-2.9,4V179.6z"/>
</g>
<g>
	<path d="M25.3,118.9v7.7h3.4v8h-3.4c0,1.6,0.3,2.7,0.8,3.3s1.4,0.9,2.8,0.9v8c-0.4,0-0.7,0-0.9,0c-1.7,0-3.3-0.4-4.9-1.2
		c-1.5-0.8-2.7-1.9-3.7-3.2c-1.2-1.7-1.7-4.1-1.7-6.9v-16.6H25.3z"/>
	<path d="M40,118.9v8.5c1.3-0.9,2.6-1.4,3.9-1.4c1.9,0,3.5,0.7,4.6,2.1c1.1,1.4,1.7,3.3,1.7,5.7v12.8h-7.6v-10.7
		c0-0.9-0.1-1.4-0.3-1.7c-0.2-0.3-0.5-0.4-1.1-0.4c-0.9,0-1.3,0.6-1.3,1.9v11h-7.6v-27.7H40z"/>
	<path d="M74.5,137.7H63c-0.2-0.6-0.3-1.1-0.3-1.6c0-0.7,0.1-1.3,0.4-2H67c-0.3-1.5-1.1-2.3-2.5-2.3c-0.9,0-1.7,0.4-2.3,1.2
		c-0.6,0.8-0.9,1.8-0.9,3.1c0,1.3,0.3,2.4,0.9,3.2c0.6,0.8,1.3,1.2,2.3,1.2c0.8,0,1.5-0.4,2.2-1.1l4.3,5.2c-2,1.6-4.3,2.4-6.7,2.4
		c-3,0-5.5-1-7.6-3c-2-2-3.1-4.5-3.1-7.5c0-3,1-5.5,3.1-7.5c2.1-2,4.6-3.1,7.6-3.1c2.9,0,5.4,1,7.4,3c2,2,3,4.5,3,7.4
		C74.6,136.5,74.6,137,74.5,137.7z"/>
</g>
<g>
	<path d="M24.9,86.1v27.7h-7.6V86.1H24.9z M36.5,93.6l-3.7,7.4l5.5,12.9h-8.4l-4.7-13.2l3.4-7H36.5z"/>
	<path d="M47.3,93.6v20.2h-7.6V93.6H47.3z M43.5,84.6c1,0,1.9,0.4,2.7,1.1c0.8,0.7,1.1,1.6,1.1,2.6c0,1.1-0.4,1.9-1.1,2.6
		c-0.7,0.7-1.6,1-2.7,1c-1.1,0-2-0.3-2.7-1c-0.7-0.7-1.1-1.5-1.1-2.6c0-1,0.4-1.8,1.1-2.6C41.6,84.9,42.5,84.6,43.5,84.6z"/>
	<path d="M59.3,86.1v27.7h-7.6V86.1H59.3z"/>
	<path d="M71.4,86.1v27.7h-7.6V86.1H71.4z"/>
</g>
<g>
	<g>
		<g>
			<path d="M135.3,100.3c2.3,0.6,17.1,3.9,28.8-3.5c12.7-8,13-14.8,7-25.5c-0.7-1.3-1.8-2.1-3.2-2.4c-10.3-2.6-36.3,17.2-36.3,17.2
				s2.6,3.6,3.5,7.2c0.9,3.5-0.1,7-0.1,7S135.1,100.3,135.3,100.3L135.3,100.3z M167.7,73.2c5.1,9.1,5,13.6-5.7,20.2
				c-7.9,4.9-17.6,4.4-22.6,3.6c0.1-1.4,0-3.1-0.5-4.8c-0.5-1.9-1.3-3.7-2.1-5.1c2.6-1.8,6.6-4.6,11.1-7.2c13.1-7.8,17.8-7.4,19-7.1
				C167.5,72.9,167.6,73.1,167.7,73.2L167.7,73.2z"/>
			<path d="M141.5,76.2c3.7-1.6,26.5-11.5,25.4-22c-0.5-5.3-4.5-8.4-6.8-9c-0.3-0.1-0.5-0.1-0.8-0.1c-5.1,0-14.1,6-14.1,6
				s1.7,4,1.2,12.4C146.2,68.8,141.5,76.2,141.5,76.2L141.5,76.2z M163,54.6c0.3,2.9-3.8,7.8-13.3,13.1c0.4-1.3,0.7-2.7,0.7-4
				c0.3-4.9-0.1-8.5-0.5-10.9c3.2-1.9,7.2-3.7,9.3-3.9C160.2,49.4,162.7,51.3,163,54.6L163,54.6z"/>
			<path d="M97.9,65.2c1.2,0.3,2.4-0.4,2.8-1.5c0.3-1.2-0.4-2.4-1.5-2.8c-1.2-0.3-2.4,0.4-2.8,1.5C96,63.6,96.7,64.9,97.9,65.2
				L97.9,65.2z"/>
			<path d="M113.6,53.6l-6.1,1.1c0.2,2.7-0.9,13.8-7.5,12.8c-2.4-0.4-5.5-3.3-5.4-6.6l-1.6,0.3c-0.3,4,2.7,7.8,5.8,8.6
				C109.1,72.3,114.4,57,113.6,53.6L113.6,53.6z"/>
			<path d="M108.1,132.1c-0.4,0.3-0.7,0.6-0.9,0.9c-0.2,0.3-0.3,0.5-0.3,0.5s0.3,0,0.6-0.2c0.3-0.1,0.8-0.4,1.1-0.7
				c0.4-0.3,0.7-0.6,0.9-0.9c0.2-0.3,0.3-0.5,0.3-0.5s-0.3,0-0.6,0.2C108.9,131.6,108.5,131.8,108.1,132.1L108.1,132.1z"/>
			<path d="M107.6,131c0.5-0.2,0.9-0.5,1.3-0.7c0.3-0.2,0.5-0.5,0.5-0.5s-0.3,0-0.7,0c-0.4,0.1-0.9,0.2-1.4,0.4
				c-0.5,0.2-0.9,0.4-1.3,0.7c-0.3,0.2-0.5,0.5-0.5,0.5s0.3,0,0.7,0C106.6,131.3,107.1,131.1,107.6,131L107.6,131z"/>
			<path d="M107,128.8c0.4,0,0.8,0,1.1-0.1c0.3-0.1,0.5-0.2,0.5-0.2s-0.2-0.1-0.5-0.3c-0.3-0.1-0.7-0.2-1.1-0.3
				c-0.4,0-0.8,0-1.1,0.1c-0.3,0.1-0.5,0.2-0.5,0.2s0.2,0.1,0.5,0.3C106.2,128.6,106.6,128.7,107,128.8L107,128.8z"/>
		</g>
		<line class="st0" x1="109.3" y1="78.3" x2="107.7" y2="72.9"/>
		<line class="st0" x1="104.4" y1="79.1" x2="102.8" y2="73.6"/>
		<line class="st0" x1="99.8" y1="80.3" x2="98.2" y2="74.8"/>
		<path d="M98,76.3l1.8,4l-0.7-4.6c0.7-0.3,1.4-0.6,2.2-0.9c0.3-0.1,0.7-0.2,1-0.3l2.1,4.6l-0.7-4.9c1.2-0.3,2.4-0.5,3.5-0.5
			l2.1,4.7l-0.7-4.8c3.4,0.1,6,1.2,6.7,3.3c1.2,3.4-11.6,7.9-22.1,4.6c1.7,2.9,8.8,5.7,13.8,7.2c-1.2,1.9-2,3.6-2.3,6
			c-0.9,0.2-3.5,1.3-4.4,1.7c-1-1-2.1-1.7-3.2-2c-0.6-0.1-1.2-0.1-1.8,0.1c-0.1,0-0.7,0.3-1.1,0.5c-0.4-0.2-0.9-0.4-1.6-0.6
			c-0.2-0.1-0.5-0.2-0.7-0.3l0,0c-1.2-0.4-2.5-0.7-3.4-0.6c-0.9,0.1-2,1.3-3,2.9c-3.9,0-5.3,1.2-5.8,2.4c-0.6,1.4,0,3.2,1,4.4
			c-0.7,0.6-1,1.2-1,2c0,1.7,1.6,3.3,2.3,3.9c-0.3,0.4-0.8,1.3-0.5,2.4c0.3,1.2,1.6,2.1,3.8,2.7c0.1,0,0.2,0,0.3,0.1
			c1.5,0.4,3,0.3,4.4,0c0.8-0.2,1.6-0.4,2.3-0.9c3.3-1.6,5.7-4.2,5.9-4.4c0.1-0.1,0.7-0.8,1.3-2c0.5,0,0.9-0.2,1.3-0.3
			c1.5-0.8,2.3-2.7,2-4.9l2.1-0.8c0.9,4,3.4,7.5,6.8,9.6c-1.7,3.1-2.6,6-2.6,9.6c-1.3-0.1-3,0.2-3.8,1.4c-1.6-0.4-3.5-0.6-5.6-0.5
			c-5.2,0-6.1,0.7-6.2,1.4c-0.1,0.8,1,1.5,1.9,1.9c-2.1,0.9-7.2,3.4-8,6c-0.2,0.7-0.1,1.4,0.3,2c0.9,1.2,2,2,3.4,2.4
			c0.6,0.2,1.2,0.2,1.5,0.2c-0.4,0.9-0.9,2.8-0.3,4.3c0.7,1.6,2.5,2.3,5.4,2c0.1,0.1,0.2,0.6,0.2,0.9c0.1,1.1,0.3,2.9,2.3,3.5
			c0.6,0.2,1.2,0.2,2,0.2c2.8-0.1,9.3-6,10.3-11.5c0.4,0,0.7-0.1,1-0.2c10,12.9,37.5,16,59.3-1.1c-9.6,1.4-21.4-15.7-27.2-23.4
			c-3.2-4.2-7.5-7-12.1-8.2c0.2-0.8,0.4-1.6,0.5-2.5c0.5-4.8-1.4-9.1-4.3-12.4c8.2-4.5,14.3-12.8,15.5-22.8
			c1.2-9.8-2.4-19.1-8.9-25.5c0.7-0.6,1.5-1.3,2.2-1.9c0.8-0.7,1.6-1.4,2.4-2c0.8-0.6,1.7-1.2,2.6-1.8c0.9-0.5,1.7-1,2.5-1.5
			c0.4-0.2,0.8-0.5,1.1-0.7c0.4-0.3,0.7-0.5,1.1-0.7c0.7-0.5,1.4-0.8,2-1.2c0.3-0.2,0.6-0.3,0.9-0.4c0.3-0.1,0.6-0.2,0.8-0.4
			c0.5-0.2,1.1-0.4,1.5-0.4c0.4-0.1,0.8-0.1,1.1-0.1c0.3,0,0.4,0,0.4,0l0.2-0.4c0,0-0.1-0.1-0.3-0.3c-0.2-0.2-0.5-0.5-1-0.7
			c-0.5-0.3-1.1-0.5-1.9-0.7c-0.4-0.1-0.8-0.1-1.3-0.1c-0.4,0-0.9,0-1.4,0c-0.9,0.1-2,0.3-3,0.7c-0.5,0.2-1,0.4-1.5,0.6
			c-0.5,0.2-1,0.5-1.4,0.8c-0.9,0.6-1.8,1.4-2.6,2.2c-0.8,0.8-1.6,1.6-2.4,2.4c-0.8,0.8-1.5,1.6-2.3,2.5c-0.7,0.8-1.3,1.6-2,2.4
			c-4.2-3.4-9.4-5.7-15.2-6.5c-1-0.1-2-0.2-2.9-0.2c0.4-0.4,0.8-0.9,1.3-1.4c0.6-0.6,1.2-1.2,1.9-1.9c0.7-0.6,1.4-1.3,2.1-2
			c1.5-1.4,3.1-2.8,4.7-4.1c0.8-0.7,1.7-1.3,2.6-1.8c0.9-0.5,1.7-1,2.5-1.5c0.4-0.3,0.8-0.5,1.2-0.7c0.4-0.3,0.7-0.5,1.1-0.7
			c0.7-0.4,1.4-0.8,2.1-1.1c0.3-0.2,0.6-0.3,0.9-0.4c0.3-0.1,0.6-0.2,0.9-0.3c0.6-0.1,1.1-0.3,1.5-0.3c0.5-0.1,0.8-0.1,1.1-0.1
			c0.3,0,0.4,0,0.4,0l0.2-0.4c0,0-0.1-0.1-0.3-0.3c-0.2-0.2-0.5-0.5-1-0.7c-0.5-0.3-1.1-0.5-1.9-0.6c-0.4-0.1-0.8-0.1-1.2-0.1
			c-0.4,0-0.9,0-1.3,0.1c-0.9,0.1-1.9,0.4-2.9,0.7c-0.5,0.2-1,0.4-1.4,0.6c-0.5,0.2-0.9,0.5-1.4,0.8c-0.9,0.6-1.8,1.3-2.6,2.1
			c-0.8,0.8-1.6,1.6-2.4,2.4c-0.8,0.8-1.5,1.6-2.3,2.4c-0.7,0.8-1.4,1.7-2.1,2.5c-1.3,1.6-2.4,3.2-3.3,4.6c-0.6,0.8-1.1,1.6-1.5,2.3
			c-9.2,0.1-17.6,4.4-23.1,11.3l0,0c0,0,0,0,0,0c-0.4,0.5-0.8,1-1.1,1.5c-1.6,2.2-5.3,11.2-4,17.4c-4.4,8.1-8.6,15.1-5.8,23.5
			l12-2.6C94,79,95.8,77.5,98,76.3L98,76.3z M82.1,111c-0.2-0.8,0.2-1.6,0.4-1.9c1.2,0.1,7.1,0.7,9.4-1.2c1.1,1.4,1.5,2.5,1.2,3.4
			c-0.2,0.4-0.5,0.8-0.9,1c-0.9,0.4-1.9,0.8-2.9,1c-0.4,0.1-0.8,0.1-1.2,0.2c-0.1,0-0.1,0-0.2,0c0,0,0,0-0.1,0c-0.7,0-1.5,0-2.2-0.2
			C83.7,112.8,82.4,112,82.1,111L82.1,111z M80.4,105c0-0.6,0.4-1.2,1-1.7c0.3,0.1,0.8,0.2,1.4,0.3c0.3,0.3,0.7,0.5,1,0.6
			c0.6,0.2,1.1,0.2,1.2,0.2c0.5,0,0.9-0.2,1.4-0.3c1.7,0.1,3.5-0.1,4.5-0.9c1.2,1.6,1.6,2.8,1.2,3.7c-1.2,2.1-7.1,1.9-9.5,1.6
			C82.2,108.2,80.3,106.5,80.4,105L80.4,105z M90.9,102.1C90.9,102.1,90.9,102.1,90.9,102.1c-0.4,0.6-1.4,0.9-2.7,1
			c0.7-0.6,1.3-1.2,1.8-1.7C90.3,101.7,90.6,101.9,90.9,102.1L90.9,102.1z M80.3,98.9c0.4-0.9,1.6-1.9,4.8-2
			c-1.3,2.1-2.5,4.6-2.7,5.3c0,0.2,0,0.4,0,0.6c-0.4-0.1-0.7-0.1-1-0.2C80.4,101.7,79.8,100.1,80.3,98.9L80.3,98.9z M94,95.6
			L94,95.6c3.4,1.8,5.3,3.9,5.8,6.3c0.6,3.4-2,6.3-2.1,6.4c0,0-1.6,1.7-3.9,3.2c0.4-1.1-0.1-2.5-1.4-4c0.1-0.1,0.1-0.1,0.2-0.2
			c0.6-1.1,0.2-2.7-1.3-4.5c0.1-0.1,0.1-0.2,0.2-0.2l0,0c2.6,1.4,4.4,0.5,4.5,0.4l-0.3-0.6c-0.1,0-2.4,1.2-5.5-1.6l-0.3-0.2
			l-0.4,0.5c-0.9,1.1-2.2,2.6-4.6,2.8c-0.4,0-1.4-0.1-1.8-0.6c-0.1-0.2-0.2-0.4-0.1-0.6c0.2-0.9,1.5-3.5,2.8-5.5
			c0.7-1,2.2-2.9,2.8-2.9c0.9-0.1,2.5,0.4,3.8,0.9C93,95.2,93.5,95.4,94,95.6L94,95.6z M101.3,98.7c1.5,2.9,1.1,6.1-0.8,7.1
			c-0.2,0.1-0.4,0.2-0.6,0.2c0.5-1.2,0.8-2.6,0.5-4.2c-0.3-1.7-1.3-3.3-3-4.7l0,0c0,0-0.7-0.8-2.5-1.7c0.2-0.1,0.4-0.3,0.5-0.3
			c0.5-0.1,1-0.2,1.5,0C98.6,95.3,100.3,96.7,101.3,98.7L101.3,98.7z M105.9,122.3c5.9,1.7,6.3,6,6.2,10.7
			c-0.1,5.6-7.2,11.7-9.6,11.8c-0.7,0-1.3,0-1.8-0.2c-1.5-0.4-1.7-1.7-1.8-2.8c-0.1-0.7-0.1-1.4-0.7-1.5c-0.1,0-0.2,0-0.3,0
			c-2.5,0.3-4.1-0.2-4.6-1.5c-0.8-1.7,0.5-4.2,0.5-4.3l0.3-0.7l-0.8,0.1c0,0-0.8,0.1-1.9-0.2c-1.2-0.3-2.2-1.1-2.9-2.1
			c-0.3-0.4-0.4-0.8-0.2-1.3c0.7-2.3,6.3-5,8.4-5.9l0.9-0.4l-1-0.4c-1.3-0.5-2.3-1.1-2.3-1.4c0,0,0.3-0.7,5.4-0.7
			C102.1,121.6,104.2,121.8,105.9,122.3L105.9,122.3z M106.2,121.6c0.9-1.1,2.4-1,3.6-0.7c1.6,0.5,3.3,1.7,4.5,3.5
			c2.2,3.1,2.3,6.8,0.2,8.2c-0.7,0.5-1,0.6-1.7,0.6c0-0.1,0-0.1,0-0.2C112.9,128.2,112.5,123.4,106.2,121.6L106.2,121.6z
			 M115.2,95.5c-3.5-3.4,3.7-8.5,8.6-3.4c2.2,2.3,8.3,8.2,7.7,16c2.6-2.5,4-5,4.2-5.5c0,0,1.9,0.6,3.9,2.1c2,1.5,2.4,2,2.4,2
			c-0.2,0.3-4.3,8.9-13.9,13.2c-1.5,0.7-3,1.2-4.3,1.5c-1.9,1.8-4.3,3.6-7.1,5.4c3.9,0.5,9.3,0.1,15.4-3.7
			c8.1-5,13.2-13.3,13.2-13.3s1.8,2.4,2.5,3.3c0.7,0.9,2.4,3.3,2.4,3.3c-0.2,0.4-5.2,10.1-16,15.3c-9.8,4.7-17.5,2.6-19.7,1.8
			c0.1-0.1,0.2-0.1,0.3-0.2c1.8-1.3,2.3-4,1.3-6.8c8.9-5.7,13.8-11.6,14.6-17.7c1-7.5-4.7-13.3-7.1-15.8l-0.4-0.4
			c-0.8-0.9-1.8-1.5-2.8-1.8c-2.3-0.7-4.6,0.4-5.4,1.8c-0.5,0.9-0.4,1.8,0.4,2.6c5,4.9,7.2,9.6,6.3,14.2c-1.2,6.5-7.1,10.4-9.8,11.8
			c-0.6-0.4-1.3-0.7-1.9-0.9c-0.1-0.6-0.2-1.6,0.1-3.2c0.4-2.6,1.4-3.9,1.4-3.9c0.1,0.1,3.4,1.2,7.5,0.9
			C122.4,109.6,123.3,103.3,115.2,95.5L115.2,95.5z M122.5,56.9c-9.9-17.7-30.1-10.6-27.9-13.5c0.3-0.5,0.7-0.9,1-1.3c0,0,0,0,0,0
			l0,0c5.7-7.1,14.8-11.1,24.5-9.9c5,0.6,9.5,2.6,13.2,5.5c-0.9,1.2-1.6,2.3-2.3,3.3c-1.8,2.8-2.8,4.7-2.8,4.7l0.4,0.3
			c0,0,1.5-1.6,3.8-3.9c0.8-0.8,1.8-1.8,2.8-2.7c6.1,5.7,9.5,14.2,8.4,23.2c-1.9,14.9-15.4,25.4-30.3,23.5
			C110.4,85.5,131.5,72.8,122.5,56.9L122.5,56.9z M112.9,61.1c-2.8,7-9.4,11-14.8,8.8c-4.5-1.8-6.7-7.4-5.6-13.3l21.4-4.3
			C114.4,55,114.1,58.1,112.9,61.1L112.9,61.1z"/>
	</g>
	<g>
		<path class="st1" d="M82.8,103.6c-0.6-0.1-1.1-0.2-1.4-0.3c-0.7,0.5-1,1-1,1.7c0,1.6,1.8,3.2,2.2,3.5c2.3,0.3,8.3,0.5,9.5-1.6
			c0.5-0.9,0.1-2.1-1.2-3.7c-1,0.8-2.8,1-4.5,0.9c-0.4,0.1-0.9,0.2-1.4,0.3c-0.1,0-0.6,0-1.2-0.2C83.4,104.1,83,103.9,82.8,103.6
			L82.8,103.6z"/>
		<path class="st1" d="M114.3,124.3c-1.2-1.7-2.8-3-4.5-3.5c-1.2-0.3-2.7-0.4-3.6,0.7c6.3,1.9,6.7,6.6,6.6,11.4c0,0.1,0,0.1,0,0.2
			c0.7,0,1-0.1,1.7-0.6C116.6,131.1,116.5,127.5,114.3,124.3L114.3,124.3z"/>
		<path class="st1" d="M112,132.9c0.1-4.7-0.3-9-6.2-10.7c-1.7-0.5-3.8-0.7-6.2-0.7c-5.1,0-5.4,0.7-5.4,0.7c0,0.3,1,0.9,2.3,1.4
			l1,0.4l-0.9,0.4c-2.1,0.8-7.7,3.5-8.4,5.9c-0.1,0.5-0.1,0.9,0.2,1.3c0.8,1.1,1.8,1.8,2.9,2.1c1.1,0.3,1.9,0.2,1.9,0.2l0.8-0.1
			l-0.3,0.7c0,0-1.2,2.6-0.5,4.3c0.6,1.3,2.1,1.8,4.6,1.5c0.1,0,0.2,0,0.3,0c0.6,0.2,0.7,0.8,0.7,1.5c0.1,1.1,0.2,2.3,1.8,2.8
			c0.5,0.1,1.1,0.2,1.8,0.2C104.8,144.6,111.9,138.5,112,132.9L112,132.9z M108.2,128.2c0.3,0.1,0.5,0.3,0.5,0.3s-0.2,0.1-0.5,0.2
			c-0.3,0.1-0.7,0.1-1.1,0.1c-0.4,0-0.8-0.1-1.1-0.2c-0.3-0.1-0.5-0.3-0.5-0.3s0.2-0.1,0.5-0.2c0.3-0.1,0.7-0.1,1.1-0.1
			C107.5,128,107.9,128.1,108.2,128.2L108.2,128.2z M108.7,129.8c0.4-0.1,0.7,0,0.7,0s-0.2,0.2-0.5,0.5c-0.3,0.2-0.8,0.5-1.3,0.7
			c-0.5,0.2-1,0.3-1.4,0.4c-0.4,0.1-0.7,0-0.7,0s0.2-0.2,0.5-0.5c0.3-0.2,0.8-0.5,1.3-0.7C107.8,130,108.3,129.9,108.7,129.8
			L108.7,129.8z M108.1,132.1c0.4-0.3,0.8-0.5,1.1-0.7c0.3-0.1,0.6-0.2,0.6-0.2s-0.1,0.3-0.3,0.5c-0.2,0.3-0.6,0.6-0.9,0.9
			c-0.4,0.3-0.8,0.5-1.1,0.7c-0.3,0.1-0.6,0.2-0.6,0.2s0.1-0.3,0.3-0.5C107.4,132.8,107.7,132.4,108.1,132.1L108.1,132.1z"/>
		<path class="st1" d="M92,108c-2.3,1.9-8.3,1.4-9.4,1.2c-0.2,0.3-0.7,1-0.4,1.9c0.3,1,1.5,1.8,3.6,2.3c0.7,0.2,1.5,0.3,2.2,0.2
			c0,0,0,0,0.1,0c0.1,0,0.1,0,0.2,0c0.3,0,0.7-0.1,1.2-0.2c1-0.2,2-0.6,2.9-1c0.4-0.3,0.8-0.6,0.9-1C93.5,110.5,93.1,109.3,92,108
			L92,108z"/>
		<path class="st1" d="M88.3,103.1c1.2-0.1,2.3-0.4,2.7-1c0,0,0,0,0,0c-0.3-0.2-0.6-0.4-0.9-0.7C89.6,101.9,89,102.6,88.3,103.1
			L88.3,103.1z"/>
		<path class="st1" d="M82.4,102.3c0.2-0.8,1.3-3.2,2.7-5.3c-3.2,0.1-4.4,1.1-4.8,2c-0.5,1.2,0.1,2.8,1,3.8c0.3,0.1,0.6,0.1,1,0.2
			C82.3,102.7,82.3,102.5,82.4,102.3L82.4,102.3z"/>
		<path class="st1" d="M99.8,101.9c-0.4-2.4-2.4-4.6-5.8-6.3l0,0c-0.4-0.2-1-0.4-1.5-0.7c-1.3-0.5-2.9-1-3.8-0.9
			C88,94.1,86.5,96,85.9,97c-1.3,2-2.6,4.6-2.8,5.5c-0.1,0.2,0,0.4,0.1,0.6c0.4,0.5,1.5,0.6,1.8,0.6c2.4-0.2,3.6-1.7,4.6-2.8
			l0.4-0.5l0.3,0.2c3.1,2.9,5.4,1.7,5.5,1.6l0.3,0.6c-0.1,0.1-1.9,1-4.5-0.4l0,0c0,0.1-0.1,0.2-0.2,0.2c1.5,1.9,1.9,3.4,1.3,4.5
			c0,0.1-0.1,0.1-0.2,0.2c1.3,1.6,1.8,2.9,1.4,4c2.3-1.5,3.8-3.2,3.9-3.2C97.7,108.3,100.4,105.3,99.8,101.9L99.8,101.9z"/>
		<path class="st1" d="M99.9,106c0.2,0,0.4-0.1,0.6-0.2c1.9-1,2.3-4.2,0.8-7.1c-1-2-2.7-3.4-4.3-3.8c-0.5-0.1-1-0.1-1.5,0
			c-0.1,0-0.3,0.2-0.5,0.3c1.8,1,2.4,1.7,2.5,1.7l0,0c1.7,1.4,2.7,3,3,4.7C100.7,103.4,100.4,104.9,99.9,106L99.9,106z"/>
		<path class="st2" d="M113,61.1c1.2-3,1.5-6,1-8.7l-21.4,4.3c-1.1,5.9,1.1,11.5,5.6,13.3C103.5,72,110.2,68.1,113,61.1L113,61.1z
			 M99.1,60.9c1.2,0.3,1.9,1.6,1.5,2.8c-0.3,1.2-1.6,1.9-2.8,1.5c-1.2-0.3-1.9-1.6-1.5-2.8C96.7,61.2,97.9,60.5,99.1,60.9L99.1,60.9
			z M100.1,67.4c6.6,1,7.7-10.1,7.5-12.8l6.1-1c0.7,3.4-4.5,18.7-14.7,16.2c-3.2-0.8-6.2-4.6-5.8-8.6l1.6-0.3
			C94.6,64.1,97.7,67.1,100.1,67.4L100.1,67.4z"/>
		<path class="st1" d="M95.6,42c-0.3,0.4-0.7,0.9-1,1.3c-2.2,2.9,18-4.2,27.9,13.5c8.9,15.9-12.2,28.7-9.2,29
			c14.9,1.9,28.4-8.7,30.3-23.5c1.1-9-2.3-17.4-8.4-23.2c-1,1-2,1.9-2.8,2.7c-2.3,2.3-3.8,3.9-3.8,3.9l-0.4-0.3c0,0,1-1.9,2.8-4.7
			c0.7-1,1.4-2.1,2.3-3.3c-3.7-2.9-8.2-4.8-13.2-5.5C110.4,30.9,101.3,34.9,95.6,42L95.6,42C95.6,42,95.6,42,95.6,42L95.6,42z"/>
		<path class="st0" d="M150.4,63.8c-0.1,1.3-0.4,2.6-0.7,4c9.5-5.4,13.6-10.2,13.3-13.1c-0.3-3.4-2.8-5.2-3.8-5.6
			c-2.2,0.1-6.2,2-9.3,3.9C150.3,55.3,150.7,58.9,150.4,63.8L150.4,63.8z"/>
		<path class="st1" d="M123.8,92.1c-4.9-5.1-12.1,0-8.6,3.4c8.1,7.8,7.2,14.1,4.1,18.5c-4.1,0.3-7.4-0.9-7.5-0.9c0,0-1,1.2-1.4,3.9
			c-0.3,1.6-0.2,2.7-0.1,3.2c0.7,0.2,1.3,0.5,1.9,0.9c2.6-1.4,8.6-5.2,9.8-11.8c0.8-4.6-1.3-9.4-6.3-14.2c-0.8-0.8-1-1.7-0.4-2.6
			c0.8-1.4,3-2.4,5.4-1.8c1,0.3,2,0.9,2.8,1.8l0.4,0.4c2.4,2.5,8,8.3,7.1,15.8c-0.8,6.1-5.7,12-14.6,17.7c1,2.8,0.6,5.6-1.3,6.8
			c-0.1,0.1-0.2,0.2-0.3,0.2c2.2,0.8,9.9,3,19.7-1.8c10.8-5.2,15.8-14.9,16-15.3c0,0-1.7-2.5-2.4-3.3c-0.7-0.9-2.5-3.3-2.5-3.3
			s-5.1,8.3-13.2,13.3c-6.2,3.8-11.6,4.2-15.4,3.7c2.8-1.8,5.2-3.6,7.1-5.4c1.4-0.4,2.8-0.8,4.3-1.5c9.6-4.3,13.7-12.9,13.9-13.2
			c0,0-0.4-0.5-2.4-2c-2-1.5-3.9-2.1-3.9-2.1c-0.3,0.5-1.7,2.9-4.2,5.5C132.1,100.3,126,94.4,123.8,92.1L123.8,92.1z"/>
		<path class="st0" d="M139.4,97.1c5,0.7,14.7,1.3,22.6-3.6c10.6-6.7,10.7-11.1,5.7-20.2c-0.1-0.2-0.2-0.4-0.7-0.5
			c-1.1-0.3-5.9-0.6-19,7.1c-4.4,2.6-8.5,5.4-11.1,7.2c0.8,1.5,1.6,3.3,2.1,5.1C139.4,94,139.5,95.7,139.4,97.1L139.4,97.1z"/>
	</g>
	<g>
		<g>
			<path class="st3" d="M122,88.3"/>
		</g>
	</g>
</g>
</svg>
